<svg xmlns="http://www.w3.org/2000/svg" height="36" style="display: block;" version="1.1" viewBox="0 0 2048 2048" width="36"><g transform="rotate(-30 1024 1100)"> <path d="M 859.18 968.097 C 877.534 965.095 886.072 965.199 904.28 968.097 C 909.491 969.316 930.598 968.032 937.932 968.097 C 955.339 968.886 979.104 968.12 997.074 968.097 L 1055.26 968.097 C 1070.51 968.121 1102.66 969.497 1116.4 968.097 C 1126.96 968.288 1137.37 968.188 1147.92 968.097 C 1163.07 967.085 1170.76 966.715 1186 968.097 C 1187.95 993.925 1186.37 1021.27 1186 1047.17 C 1181.6 1048.03 1176.28 1048.28 1173.32 1050.78 C 1196.27 1125.77 1215.92 1196.91 1249.91 1268.74 C 1255.51 1280.58 1264.89 1295.4 1269.25 1307.03 C 1277.32 1306.95 1311.44 1305.47 1312.94 1309.9 C 1316.69 1320.96 1320.55 1388.78 1310.03 1398.45 C 1360.64 1507.01 1423.65 1599.26 1489.21 1697.56 C 1510.87 1730.04 1439.07 1721.74 1425.65 1721.74 L 1322.45 1721.89 C 1317.57 1721.87 1305.91 1722.37 1303.41 1718.79 C 1286.4 1693.06 1273.63 1663.31 1259.25 1635.77 C 1212.26 1545.74 1133.53 1466.71 1025.19 1466.89 C 887.598 1467.11 834.13 1557.08 777.544 1659.79 C 736.414 1727.69 765.787 1721.97 677.355 1721.78 L 569.851 1721.73 C 561.975 1715.39 561.554 1714.37 558.161 1705.12 C 562.818 1690.72 572.219 1681 580.662 1668.8 C 639.09 1584.39 691.082 1492.05 733.239 1398.45 C 728.853 1389.03 728.171 1317.62 731.764 1308.96 C 738.781 1304.19 770.428 1306.1 779.891 1307.03 C 782.115 1298.86 791.532 1280.94 795.591 1272.73 C 830.718 1201.71 853.647 1123.55 873.621 1047.17 C 868.533 1047.46 864.239 1047.31 859.18 1047.17 C 858.891 1021.11 858.9 994.159 859.18 968.097 z M 1323.99 1689.59 C 1364.15 1689.53 1407.17 1690.97 1446.67 1689.59 C 1434.39 1676.48 1420.96 1652.67 1410.31 1637.29 C 1363.96 1570.32 1308.69 1474.29 1274.18 1398.45 C 1245.1 1398.6 1215.04 1398.84 1186 1398.45 C 1229.69 1498.33 1275.32 1591.96 1323.99 1689.59 z M 723.093 1689.59 C 764.225 1614.2 834.533 1481.77 859.18 1398.45 C 857.36 1397.07 781.534 1399.35 769.637 1398.45 C 731.321 1489.32 673.464 1588.59 619.699 1670.38 C 615.618 1676.58 611.071 1683.16 607.453 1689.59 L 723.093 1689.59 z M 1116.4 1307.03 L 1151.26 1307.03 C 1178.5 1307.04 1206.46 1307.39 1233.64 1307.03 C 1239.67 1308.49 1262.99 1308.41 1269.25 1307.03 C 1264.89 1295.4 1255.51 1280.58 1249.91 1268.74 C 1215.92 1196.91 1196.27 1125.77 1173.32 1050.78 C 1176.28 1048.28 1181.6 1048.03 1186 1047.17 C 1186.37 1021.27 1187.95 993.925 1186 968.097 C 1170.76 966.715 1163.07 967.085 1147.92 968.097 C 1137.37 968.188 1126.96 968.288 1116.4 968.097 C 1102.66 969.497 1070.51 968.121 1055.26 968.097 L 997.074 968.097 C 979.104 968.12 955.339 968.886 937.932 968.097 C 930.598 968.032 909.491 969.316 904.28 968.097 C 886.072 965.199 877.534 965.095 859.18 968.097 C 858.9 994.159 858.891 1021.11 859.18 1047.17 C 864.239 1047.31 868.533 1047.46 873.621 1047.17 C 853.647 1123.55 830.718 1201.71 795.591 1272.73 C 791.532 1280.94 782.115 1298.86 779.891 1307.03 C 792.627 1307.67 805.054 1306.48 816.25 1307.03 L 899.49 1307.03 L 933.265 1307.03 L 1058.31 1307 C 1076.93 1306.99 1098.07 1307.52 1116.4 1307.03 z" fill="#4F58A8" transform="translate(0,0)"></path> <path d="M 859.18 968.097 C 877.534 965.095 886.072 965.199 904.28 968.097 C 909.491 969.316 930.598 968.032 937.932 968.097 C 955.339 968.886 979.104 968.12 997.074 968.097 L 1055.26 968.097 C 1070.51 968.121 1102.66 969.497 1116.4 968.097 C 1126.96 968.288 1137.37 968.188 1147.92 968.097 C 1163.07 967.085 1170.76 966.715 1186 968.097 C 1187.95 993.925 1186.37 1021.27 1186 1047.17 C 1181.6 1048.03 1176.28 1048.28 1173.32 1050.78 C 1196.27 1125.77 1215.92 1196.91 1249.91 1268.74 C 1255.51 1280.58 1264.89 1295.4 1269.25 1307.03 C 1262.99 1308.41 1239.67 1308.49 1233.64 1307.03 C 1211.58 1263.14 1197.67 1231.6 1182.41 1183.92 L 1109.87 1183.92 C 1120.4 1223.6 1136.93 1268.64 1151.26 1307.03 L 1116.4 1307.03 C 1094.97 1252.06 1058.49 1135.66 1053.7 1077.69 C 1034.74 1079.03 1016.03 1078.93 997.074 1077.69 C 993.109 1089.83 990.088 1102.55 987.864 1115.13 C 976.163 1181.3 952.984 1243.22 933.265 1307.03 L 899.49 1307.03 C 904.728 1273.43 927.178 1219.19 937.932 1183.92 C 914.871 1184.48 889.453 1183.93 866.206 1183.92 C 850.401 1227.39 834.972 1264.98 816.25 1307.03 C 805.054 1306.48 792.627 1307.67 779.891 1307.03 C 782.115 1298.86 791.532 1280.94 795.591 1272.73 C 830.718 1201.71 853.647 1123.55 873.621 1047.17 C 868.533 1047.46 864.239 1047.31 859.18 1047.17 C 858.891 1021.11 858.9 994.159 859.18 968.097 z M 941.045 1150.99 C 953.082 1150.69 959.697 1091.78 962.705 1077.69 L 899.49 1077.69 C 892.072 1102.14 884.759 1126.69 876.846 1150.99 C 898.075 1151.49 919.752 1150.93 941.045 1150.99 z M 1100.94 1150.99 L 1168.68 1150.99 C 1162.73 1126.39 1153.64 1102.08 1147.92 1077.69 C 1127.79 1077.62 1105.08 1077.04 1085.12 1077.69 C 1090.12 1102.39 1095.37 1126.41 1100.94 1150.99 z" fill="#4F58A8" transform="translate(0,0)"></path> <path d="M 859.18 968.097 C 877.534 965.095 886.072 965.199 904.28 968.097 C 909.491 969.316 930.598 968.032 937.932 968.097 C 955.339 968.886 979.104 968.12 997.074 968.097 L 1055.26 968.097 C 1070.51 968.121 1102.66 969.497 1116.4 968.097 C 1126.96 968.288 1137.37 968.188 1147.92 968.097 C 1163.07 967.085 1170.76 966.715 1186 968.097 C 1187.95 993.925 1186.37 1021.27 1186 1047.17 C 1181.6 1048.03 1176.28 1048.28 1173.32 1050.78 L 1172.55 1048.43 C 1168.92 1046.06 1115.07 1047.21 1107.01 1047.19 L 933.473 1047.22 C 924.07 1047.22 880.182 1045.78 873.621 1047.17 C 868.533 1047.46 864.239 1047.31 859.18 1047.17 C 858.891 1021.11 858.9 994.159 859.18 968.097 z" fill="#8A93CC" transform="translate(0,0)"></path> <path d="M 933.265 1307.03 L 1058.31 1307 C 1076.93 1306.99 1098.07 1307.52 1116.4 1307.03 L 1151.26 1307.03 C 1178.5 1307.04 1206.46 1307.39 1233.64 1307.03 C 1239.67 1308.49 1262.99 1308.41 1269.25 1307.03 C 1277.32 1306.95 1311.44 1305.47 1312.94 1309.9 C 1316.69 1320.96 1320.55 1388.78 1310.03 1398.45 C 1304.07 1398.19 1278.86 1396.97 1274.18 1398.45 C 1245.1 1398.6 1215.04 1398.84 1186 1398.45 C 1179.91 1397.43 1166.3 1398.36 1159.51 1398.37 L 927.001 1398.48 C 917.968 1398.48 862.071 1396.4 859.18 1398.45 C 857.36 1397.07 781.534 1399.35 769.637 1398.45 C 758.408 1397.46 744.662 1398.14 733.239 1398.45 C 728.853 1389.03 728.171 1317.62 731.764 1308.96 C 738.781 1304.19 770.428 1306.1 779.891 1307.03 C 792.627 1307.67 805.054 1306.48 816.25 1307.03 L 899.49 1307.03 L 933.265 1307.03 z" fill="#8A93CC" transform="translate(0,0)"></path> <path d="M 1007.83 321.511 L 1007.66 268.407 C 1007.53 248.78 1011.67 188.622 1041.29 229.786 L 1041.29 321.511 C 1075.14 335.706 1103.39 394.174 1067.19 409.978 C 1076.23 582.509 1091.08 802.441 1147.92 968.097 C 1137.37 968.188 1126.96 968.288 1116.4 968.097 C 1106.03 946.489 1101.67 923.045 1097.43 899.495 C 1083.54 899.035 1067.73 899.443 1053.7 899.495 C 1053.74 922.577 1055.79 944.421 1055.26 968.097 L 997.074 968.097 C 995.118 949.722 997.33 919.727 997.074 899.495 L 954.532 899.495 C 949.759 922.254 943.533 945.451 937.932 968.097 C 930.598 968.032 909.491 969.316 904.28 968.097 C 946.88 813.455 987.454 574.577 978.98 409.978 C 943.697 387.575 976.049 333.675 1007.83 321.511 z" fill="#4F58A8" transform="translate(0,0)"></path> </g></svg>